<?xml version="1.0" encoding="UTF-8"?>
<!DOCTYPE svg PUBLIC "-//W3C//DTD SVG 1.1//EN" "http://www.w3.org/Graphics/SVG/1.1/DTD/svg11.dtd">
<svg xmlns="http://www.w3.org/2000/svg" version="1.1" width="512px" height="512px" style="shape-rendering:geometricPrecision; text-rendering:geometricPrecision; image-rendering:optimizeQuality; fill-rule:evenodd; clip-rule:evenodd" xmlns:xlink="http://www.w3.org/1999/xlink">
<g><path style="opacity:0.986" fill="#7d8292" d="M 328.5,25.5 C 328.173,35.6806 328.506,45.6806 329.5,55.5C 330.534,63.0657 328.868,69.899 324.5,76C 322.725,77.4389 320.725,78.4389 318.5,79C 277.167,79.6667 235.833,79.6667 194.5,79C 190.157,77.9905 186.99,75.4905 185,71.5C 183.661,66.2636 183.161,60.9302 183.5,55.5C 184.833,45.5 184.833,35.5 183.5,25.5C 184.94,19.5592 188.607,15.7259 194.5,14C 235.833,13.3333 277.167,13.3333 318.5,14C 324.27,15.7024 327.603,19.5357 328.5,25.5 Z"/></g>
<g><path style="opacity:0.976" fill="#464655" d="M 183.5,25.5 C 184.833,35.5 184.833,45.5 183.5,55.5C 164.847,55.0163 153.347,63.683 149,81.5C 148.5,94.1623 148.333,106.829 148.5,119.5C 138.167,119.5 127.833,119.5 117.5,119.5C 117.333,105.829 117.5,92.1626 118,78.5C 125.122,42.6853 146.955,25.0186 183.5,25.5 Z"/></g>
<g><path style="opacity:0.974" fill="#464655" d="M 328.5,25.5 C 364.654,25.3277 386.154,42.9943 393,78.5C 393.5,92.1626 393.667,105.829 393.5,119.5C 383.167,119.5 372.833,119.5 362.5,119.5C 362.667,106.829 362.5,94.1623 362,81.5C 357.943,64.6293 347.11,55.9627 329.5,55.5C 328.506,45.6806 328.173,35.6806 328.5,25.5 Z"/></g>
<g><path style="opacity:1" fill="#464655" d="M 207.5,40.5 C 239.835,40.3334 272.168,40.5 304.5,41C 308.213,42.6912 309.379,45.5245 308,49.5C 307.097,50.7014 305.931,51.5348 304.5,52C 272.167,52.6667 239.833,52.6667 207.5,52C 203.555,48.1694 203.555,44.3361 207.5,40.5 Z"/></g>
<g><path style="opacity:0.999" fill="#b9785e" d="M 117.5,119.5 C 127.833,119.5 138.167,119.5 148.5,119.5C 219.833,119.5 291.167,119.5 362.5,119.5C 372.833,119.5 383.167,119.5 393.5,119.5C 423.502,119.333 453.502,119.5 483.5,120C 497.577,123.912 506.91,132.745 511.5,146.5C 511.5,170.833 511.5,195.167 511.5,219.5C 508.895,237.311 502.895,253.977 493.5,269.5C 475.192,298.122 449.525,316.789 416.5,325.5C 416.667,314.495 416.5,303.495 416,292.5C 414.052,285.43 409.552,280.93 402.5,279C 384.167,278.333 365.833,278.333 347.5,279C 341.359,281.141 337.193,285.307 335,291.5C 334.5,311.831 334.333,332.164 334.5,352.5C 333.514,348.03 333.181,343.363 333.5,338.5C 333.5,335.833 333.5,333.167 333.5,330.5C 280.833,330.5 228.167,330.5 175.5,330.5C 175.667,317.829 175.5,305.162 175,292.5C 173.052,285.43 168.552,280.93 161.5,279C 143.167,278.333 124.833,278.333 106.5,279C 100.333,281.167 96.1667,285.333 94,291.5C 93.5,311.831 93.3334,332.164 93.5,352.5C 92.5098,346.355 92.1765,340.022 92.5,333.5C 92.7771,330.552 92.4438,327.719 91.5,325C 60.0751,315.396 35.4085,296.896 17.5,269.5C 8.10535,253.977 2.10535,237.311 -0.5,219.5C -0.5,195.167 -0.5,170.833 -0.5,146.5C 4.09008,132.745 13.4234,123.912 27.5,120C 57.4981,119.5 87.4981,119.333 117.5,119.5 Z"/></g>
<g><path style="opacity:1" fill="#aa6955" d="M 136.5,162.5 C 215.501,162.333 294.501,162.5 373.5,163C 379.307,164.807 383.141,168.64 385,174.5C 385.667,186.167 385.667,197.833 385,209.5C 383.614,217.22 379.114,222.053 371.5,224C 294.167,224.667 216.833,224.667 139.5,224C 132.763,222.264 128.263,218.097 126,211.5C 125.333,199.167 125.333,186.833 126,174.5C 127.963,169.044 131.463,165.044 136.5,162.5 Z"/></g>
<g><path style="opacity:1" fill="#9b5f50" d="M 17.5,269.5 C 35.4085,296.896 60.0751,315.396 91.5,325C 92.4438,327.719 92.7771,330.552 92.5,333.5C 61.6003,325.559 36.6003,308.892 17.5,283.5C 17.5,278.833 17.5,274.167 17.5,269.5 Z"/></g>
<g><path style="opacity:1" fill="#9b5f50" d="M 493.5,269.5 C 493.5,274.5 493.5,279.5 493.5,284.5C 477.315,304.431 457.315,319.264 433.5,329C 427.998,331.225 422.331,332.725 416.5,333.5C 416.5,330.833 416.5,328.167 416.5,325.5C 449.525,316.789 475.192,298.122 493.5,269.5 Z"/></g>
<g><path style="opacity:1" fill="#fec26e" d="M 175.5,330.5 C 175.5,333.167 175.5,335.833 175.5,338.5C 177.89,349.831 174.89,359.331 166.5,367C 164.608,367.973 162.608,368.64 160.5,369C 142.5,369.667 124.5,369.667 106.5,369C 98.6162,366.284 94.2828,360.784 93.5,352.5C 93.3334,332.164 93.5,311.831 94,291.5C 96.1667,285.333 100.333,281.167 106.5,279C 124.833,278.333 143.167,278.333 161.5,279C 168.552,280.93 173.052,285.43 175,292.5C 175.5,305.162 175.667,317.829 175.5,330.5 Z"/></g>
<g><path style="opacity:1" fill="#fec26e" d="M 416.5,325.5 C 416.5,328.167 416.5,330.833 416.5,333.5C 416.863,341.571 416.363,349.571 415,357.5C 412.309,363.529 407.809,367.362 401.5,369C 383.5,369.667 365.5,369.667 347.5,369C 339.616,366.284 335.283,360.784 334.5,352.5C 334.333,332.164 334.5,311.831 335,291.5C 337.193,285.307 341.359,281.141 347.5,279C 365.833,278.333 384.167,278.333 402.5,279C 409.552,280.93 414.052,285.43 416,292.5C 416.5,303.495 416.667,314.495 416.5,325.5 Z"/></g>
<g><path style="opacity:0.997" fill="#aa6955" d="M 17.5,283.5 C 36.6003,308.892 61.6003,325.559 92.5,333.5C 92.1765,340.022 92.5098,346.355 93.5,352.5C 94.2828,360.784 98.6162,366.284 106.5,369C 124.5,369.667 142.5,369.667 160.5,369C 162.608,368.64 164.608,367.973 166.5,367C 174.89,359.331 177.89,349.831 175.5,338.5C 228.167,338.5 280.833,338.5 333.5,338.5C 333.181,343.363 333.514,348.03 334.5,352.5C 335.283,360.784 339.616,366.284 347.5,369C 365.5,369.667 383.5,369.667 401.5,369C 407.809,367.362 412.309,363.529 415,357.5C 416.363,349.571 416.863,341.571 416.5,333.5C 422.331,332.725 427.998,331.225 433.5,329C 457.315,319.264 477.315,304.431 493.5,284.5C 493.5,330.167 493.5,375.833 493.5,421.5C 458.341,424.174 434.841,442.174 423,475.5C 420.892,482.68 420.058,490.013 420.5,497.5C 310.833,497.5 201.167,497.5 91.5,497.5C 91.7947,495.265 91.4614,493.265 90.5,491.5C 86.3654,457.523 68.032,435.023 35.5,424C 29.5814,422.519 23.5814,421.686 17.5,421.5C 17.5,375.5 17.5,329.5 17.5,283.5 Z"/></g>
<g><path style="opacity:1" fill="#ffda8e" d="M 128.5,304.5 C 146.648,303.148 154.815,311.481 153,329.5C 146.626,343.515 136.459,347.015 122.5,340C 113.817,332.005 112.317,322.839 118,312.5C 120.94,308.963 124.44,306.297 128.5,304.5 Z"/></g>
<g><path style="opacity:1" fill="#ffda8e" d="M 369.5,304.5 C 387.648,303.148 395.815,311.481 394,329.5C 387.501,343.323 377.334,346.823 363.5,340C 354.817,332.005 353.317,322.839 359,312.5C 361.975,308.952 365.475,306.286 369.5,304.5 Z"/></g>
<g><path style="opacity:1" fill="#9b5f50" d="M 175.5,330.5 C 228.167,330.5 280.833,330.5 333.5,330.5C 333.5,333.167 333.5,335.833 333.5,338.5C 280.833,338.5 228.167,338.5 175.5,338.5C 175.5,335.833 175.5,333.167 175.5,330.5 Z"/></g>
<g><path style="opacity:1" fill="#fec26d" d="M 17.5,421.5 C 23.5814,421.686 29.5814,422.519 35.5,424C 68.032,435.023 86.3654,457.523 90.5,491.5C 90.5,493.167 90.5,494.833 90.5,496.5C 67.4976,496.667 44.4976,496.5 21.5,496C 20.7562,494.961 19.7562,494.461 18.5,494.5C 17.5024,470.339 17.169,446.006 17.5,421.5 Z"/></g>
<g><path style="opacity:1" fill="#fdc16d" d="M 493.5,421.5 C 493.667,445.836 493.5,470.169 493,494.5C 492.167,495.333 491.333,496.167 490.5,497C 467.169,497.5 443.836,497.667 420.5,497.5C 420.058,490.013 420.892,482.68 423,475.5C 434.841,442.174 458.341,424.174 493.5,421.5 Z"/></g>
<g><path style="opacity:0.89" fill="#e7a966" d="M 90.5,491.5 C 91.4614,493.265 91.7947,495.265 91.5,497.5C 67.831,497.667 44.1643,497.5 20.5,497C 19.6195,496.292 18.9528,495.458 18.5,494.5C 19.7562,494.461 20.7562,494.961 21.5,496C 44.4976,496.5 67.4976,496.667 90.5,496.5C 90.5,494.833 90.5,493.167 90.5,491.5 Z"/></g>
</svg>
